{"title":"Judith.Lucy.Nothing.Fancy.DVDRip.x264.Iou1","uid":8956018,"size":731198715,"categoryP":"video","categoryS":"movies","magnet":"?xt=urn:btih:5e668c564388bdcd440b0299c0d5a5a8e93be7ec&amp;dn=Judith.Lucy.Nothing.Fancy.DVDRip.x264.Iou1&amp;tr=udp%3A%2F%2Ftracker.openbittorrent.com%3A80&amp;tr=udp%3A%2F%2Fopen.demonii.com%3A1337&amp;tr=udp%3A%2F%2Ftracker.coppersurfer.tk%3A6969&amp;tr=udp%3A%2F%2Fexodus.desync.com%3A6969","seeders":0,"leechers":4,"uploader":"jaybee211","files":-1,"time":1379996936,"description":"Genre                                    : Comedy\nFormat                                   : MPEG-4\nFormat profile                           : Base Media / Version 2\nCodec ID                                 : mp42\nFile size                                : 697 MiB\nDuration                                 : 1h 12mn\nOverall bit rate mode                    : Variable\nOverall bit rate                         : 1 347 Kbps\n\nVideo\nID                                       : 1\nFormat                                   : AVC\nFormat/Info                              : Advanced Video Codec\nFormat profile                           : &lt;a class=&quot;__cf_email__&quot; href=&quot;/cdn-cgi/l/email-protection&quot; data-cfemail=&quot;fbb3929c93bbb7c8d5cb&quot;&gt;[email&amp;#160;protected]&lt;/a&gt;&lt;script cf-hash='f9e31' type=&quot;text/javascript&quot;&gt;\n/* &lt;![CDATA[ */!function(){try{var t=&quot;currentScript&quot;in document?document.currentScript:function(){for(var t=document.getElementsByTagName(&quot;script&quot;),e=t.length;e--;)if(t[e].getAttribute(&quot;cf-hash&quot;))return t[e]}();if(t&amp;&amp;t.previousSibling){var e,r,n,i,c=t.previousSibling,a=c.getAttribute(&quot;data-cfemail&quot;);if(a){for(e=&quot;&quot;,r=parseInt(a.substr(0,2),16),n=2;a.length-n;n+=2)i=parseInt(a.substr(n,2),16)^r,e+=String.fromCharCode(i);e=document.createTextNode(e),c.parentNode.replaceChild(e,c)}}}catch(u){}}();/* ]]&gt; */&lt;/script&gt;\nFormat settings, CABAC                   : Yes\nFormat settings, ReFrames                : 4 frames\nCodec ID                                 : avc1\nCodec ID/Info                            : Advanced Video Coding\nDuration                                 : 1h 12mn\nBit rate mode                            : Variable\nBit rate                                 : 1 249 Kbps\nMaximum bit rate                         : 3 115 Kbps\nWidth                                    : 720 pixels\nHeight                                   : 568 pixels\nDisplay aspect ratio                     : 1.85:1\nFrame rate mode                          : Constant\nFrame rate                               : 25.000 fps\nStandard                                 : PAL\nColor space                              : YUV\nChroma subsampling                       : 4:2:0\nBit depth                                : 8 bits\nScan type                                : Progressive\nBits/(Pixel*Frame)                       : 0.122\nStream size                              : 646 MiB (93%)\n\nAudio\nID                                       : 2\nFormat                                   : AAC\nFormat/Info                              : Advanced Audio Codec\nFormat profile                           : LC\nCodec ID                                 : 40\nDuration                                 : 1h 12mn\nBit rate mode                            : Variable\nBit rate                                 : 93.9 Kbps\nMaximum bit rate                         : 105 Kbps\nChannel(s)                               : 2 channels\nChannel positions                        : Front: L R\nSampling rate                            : 48.0 KHz\nCompression mode                         : Lossy\nStream size                              : 48.6 MiB (7%)\nLanguage                                 : English\n\nScreens. &lt;a href=&quot; http://bayimg.com/EapDPAaeP&quot; rel=&quot;nofollow&quot; target=&quot;_NEW&quot;&gt; http://bayimg.com/EapDPAaeP&lt;/a&gt;\n\nEnjoy.","torrent":{"xt":"urn:btih:5e668c564388bdcd440b0299c0d5a5a8e93be7ec","amp;dn":"Judith.Lucy.Nothing.Fancy.DVDRip.x264.Iou1","amp;tr":["udp%3A%2F%2Ftracker.openbittorrent.com%3A80","udp%3A%2F%2Fopen.demonii.com%3A1337","udp%3A%2F%2Ftracker.coppersurfer.tk%3A6969","udp%3A%2F%2Fexodus.desync.com%3A6969"],"infoHash":"5e668c564388bdcd440b0299c0d5a5a8e93be7ec","infoHashBuffer":{"type":"Buffer","data":[94,102,140,86,67,136,189,205,68,11,2,153,192,213,165,168,233,59,231,236]},"announce":[],"urlList":[]}}